<svg width="40" height="40" viewBox="0 0 40 40" fill="none" xmlns="http://www.w3.org/2000/svg">
<path d="M19.9999 38.2222C30.0638 38.2222 38.2222 30.0638 38.2222 20C38.2222 9.93612 30.0638 1.77775 19.9999 1.77775C9.93608 1.77775 1.77771 9.93612 1.77771 20C1.77771 30.0638 9.93608 38.2222 19.9999 38.2222Z" fill="#A2FFD4" fill-opacity="0.05" stroke="#009C60" stroke-width="2"/>
<path d="M22.4968 14.49C22.6529 16.3163 24.1121 17.7748 25.9382 17.9314C24.7578 19.3331 24.7581 21.3959 25.9382 22.7976C24.1124 22.9542 22.6533 24.4132 22.4968 26.2391C21.095 25.0588 19.0322 25.0585 17.6306 26.2391C17.474 24.4129 16.0155 22.9537 14.1892 22.7976C15.37 21.3957 15.3703 19.3333 14.1892 17.9314C16.0158 17.7753 17.4744 16.3166 17.6306 14.49C19.0324 15.6711 21.0948 15.6708 22.4968 14.49Z" stroke="#009C60" stroke-width="0.444444"/>
<mask id="path-3-inside-1_15178_4176" fill="white">
<path d="M16.5308 11.8286C16.2627 11.1803 14.6072 8.98862 13.823 9.31298L16.5308 11.8286ZM23.2757 28.1102C23.5438 28.7584 23.9327 31.5034 23.1486 31.8277L23.2757 28.1102Z"/>
</mask>
<path d="M16.5308 11.8286C16.2627 11.1803 14.6072 8.98862 13.823 9.31298L16.5308 11.8286ZM23.2757 28.1102C23.5438 28.7584 23.9327 31.5034 23.1486 31.8277L23.2757 28.1102Z" fill="#009C60"/>
<path d="M16.5308 11.8286L16.2283 12.1542L16.9415 11.6587L16.5308 11.8286ZM13.823 9.31298L13.6531 8.90228L13.0129 9.16707L13.5205 9.63859L13.823 9.31298ZM23.2757 28.1102L23.6864 27.9403L22.8315 28.095L23.2757 28.1102ZM23.1486 31.8277L22.7044 31.8125L22.6808 32.5021L23.3184 32.2384L23.1486 31.8277ZM16.5308 11.8286L16.9415 11.6587C16.8551 11.4499 16.6782 11.1588 16.4684 10.8607C16.2532 10.5549 15.9842 10.2144 15.6964 9.90391C15.4119 9.59699 15.0928 9.30161 14.7762 9.10206C14.488 8.92039 14.0651 8.73186 13.6531 8.90228L13.823 9.31298L13.9929 9.72368C13.9729 9.73192 14.0511 9.69572 14.3022 9.85402C14.525 9.99445 14.7835 10.2267 15.0445 10.5082C15.302 10.7861 15.5463 11.0948 15.7414 11.3722C15.9419 11.6571 16.0724 11.8832 16.1201 11.9985L16.5308 11.8286ZM13.823 9.31298L13.5205 9.63859L16.2283 12.1542L16.5308 11.8286L16.8333 11.503L14.1255 8.98736L13.823 9.31298ZM23.2757 28.1102L22.865 28.2801C22.9128 28.3957 22.9809 28.6497 23.0414 28.9956C23.1004 29.3322 23.1472 29.7265 23.1626 30.1084C23.1783 30.4952 23.1607 30.8455 23.1031 31.1047C23.0379 31.3978 22.9567 31.4261 22.9787 31.417L23.1486 31.8277L23.3184 32.2384C23.7325 32.0672 23.8967 31.6307 23.9708 31.2977C24.0524 30.9307 24.0679 30.4934 24.0508 30.0724C24.0336 29.6465 23.9819 29.2127 23.917 28.8423C23.8537 28.481 23.7726 28.1488 23.6864 27.9403L23.2757 28.1102ZM23.1486 31.8277L23.5927 31.8429L23.7199 28.1254L23.2757 28.1102L22.8315 28.095L22.7044 31.8125L23.1486 31.8277Z" fill="#009C60" mask="url(#path-3-inside-1_15178_4176)"/>
<mask id="path-5-inside-2_15178_4176" fill="white">
<path d="M23.2751 28.1101C23.5433 28.7584 25.2036 30.9775 25.9877 30.6531L23.2751 28.1101ZM23.5371 11.8521C23.8059 11.2041 25.5068 9.03267 26.2906 9.35787L23.5371 11.8521Z"/>
</mask>
<path d="M23.2751 28.1101C23.5433 28.7584 25.2036 30.9775 25.9877 30.6531L23.2751 28.1101ZM23.5371 11.8521C23.8059 11.2041 25.5068 9.03267 26.2906 9.35787L23.5371 11.8521Z" fill="#009C60"/>
<path d="M23.2751 28.1101L23.5791 27.7859L22.8644 28.28L23.2751 28.1101ZM25.9877 30.6531L26.1576 31.0638L26.7946 30.8003L26.2917 30.3289L25.9877 30.6531ZM23.5371 11.8521L23.1265 11.6818L23.8354 12.1815L23.5371 11.8521ZM26.2906 9.35787L26.589 9.68726L27.109 9.21623L26.4609 8.94735L26.2906 9.35787ZM23.2751 28.1101L22.8644 28.28C22.9506 28.4882 23.1274 28.7806 23.3376 29.0812C23.553 29.3894 23.8224 29.7331 24.1106 30.047C24.3954 30.3572 24.7149 30.656 25.0315 30.8583C25.319 31.0419 25.7434 31.2351 26.1576 31.0638L25.9877 30.6531L25.8178 30.2424C25.84 30.2333 25.7628 30.2707 25.51 30.1092C25.2865 29.9664 25.027 29.7308 24.7653 29.4457C24.5069 29.1644 24.2619 28.852 24.0661 28.5719C23.865 28.2843 23.7338 28.0562 23.6858 27.9403L23.2751 28.1101ZM25.9877 30.6531L26.2917 30.3289L23.5791 27.7859L23.2751 28.1101L22.9712 28.4344L25.6838 30.9774L25.9877 30.6531ZM23.5371 11.8521L23.9476 12.0225C23.9942 11.9101 24.1256 11.6872 24.3306 11.4038C24.5296 11.1287 24.7791 10.8225 25.0422 10.547C25.3085 10.268 25.5726 10.0375 25.7999 9.89815C26.0561 9.74102 26.1379 9.7757 26.1203 9.76838L26.2906 9.35787L26.4609 8.94735C26.0514 8.77744 25.6267 8.9616 25.3351 9.14041C25.0146 9.33699 24.6897 9.62889 24.3993 9.93314C24.1055 10.2408 23.8304 10.5786 23.6104 10.8828C23.3964 11.1787 23.2144 11.4701 23.1265 11.6818L23.5371 11.8521ZM26.2906 9.35787L25.9922 9.02847L23.2387 11.5227L23.5371 11.8521L23.8354 12.1815L26.589 9.68726L26.2906 9.35787Z" fill="#009C60" mask="url(#path-5-inside-2_15178_4176)"/>
<mask id="path-7-inside-3_15178_4176" fill="white">
<path d="M23.537 11.8522C23.8058 11.2042 24.2359 8.50553 23.4521 8.18038L23.537 11.8522ZM16.8696 28.1104C16.6008 28.7584 14.9531 30.9767 14.1693 30.6515L16.8696 28.1104Z"/>
</mask>
<path d="M23.537 11.8522C23.8058 11.2042 24.2359 8.50553 23.4521 8.18038L23.537 11.8522ZM16.8696 28.1104C16.6008 28.7584 14.9531 30.9767 14.1693 30.6515L16.8696 28.1104Z" fill="#009C60"/>
<path d="M23.537 11.8522L23.0927 11.8624L23.9476 12.0224L23.537 11.8522ZM23.4521 8.18038L23.6224 7.76985L22.9919 7.50834L23.0077 8.19066L23.4521 8.18038ZM16.8696 28.1104L17.2801 28.2807L16.565 27.7867L16.8696 28.1104ZM14.1693 30.6515L13.8647 30.3279L13.3643 30.7988L13.999 31.0621L14.1693 30.6515ZM23.537 11.8522L23.9476 12.0224C24.1089 11.6335 24.2886 10.7411 24.3331 9.91924C24.3556 9.50397 24.346 9.07156 24.2685 8.70766C24.198 8.37595 24.0369 7.94182 23.6224 7.76985L23.4521 8.18038L23.2818 8.5909C23.2591 8.58152 23.3383 8.60665 23.3991 8.89263C23.4531 9.14642 23.4661 9.49013 23.4455 9.87116C23.4037 10.6419 23.234 11.4228 23.1265 11.6819L23.537 11.8522ZM23.4521 8.18038L23.0077 8.19066L23.0927 11.8624L23.537 11.8522L23.9814 11.8419L23.8964 8.17009L23.4521 8.18038ZM16.8696 28.1104L16.459 27.9401C16.3527 28.1964 15.9118 28.8689 15.3844 29.4461C15.1242 29.731 14.8664 29.9662 14.6443 30.1086C14.3932 30.2695 14.3171 30.2317 14.3396 30.241L14.1693 30.6515L13.999 31.0621C14.4134 31.234 14.8372 31.0408 15.124 30.857C15.4396 30.6546 15.7574 30.3557 16.0407 30.0457C16.6004 29.433 17.1176 28.6724 17.2801 28.2807L16.8696 28.1104ZM14.1693 30.6515L14.4739 30.9752L17.1742 28.434L16.8696 28.1104L16.565 27.7867L13.8647 30.3279L14.1693 30.6515Z" fill="#009C60" mask="url(#path-7-inside-3_15178_4176)"/>
<mask id="path-9-inside-4_15178_4176" fill="white">
<path d="M16.8699 28.1105C16.6011 28.7585 16.2243 31.5039 17.0081 31.829L16.8699 28.1105ZM11.6342 16.8609C10.9783 16.6121 8.71079 15.0251 9.01173 14.2316L11.6342 16.8609Z"/>
</mask>
<path d="M16.8699 28.1105C16.6011 28.7585 16.2243 31.5039 17.0081 31.829L16.8699 28.1105ZM11.6342 16.8609C10.9783 16.6121 8.71079 15.0251 9.01173 14.2316L11.6342 16.8609Z" fill="#009C60"/>
<path d="M16.8699 28.1105L17.3141 28.094L16.4594 27.9402L16.8699 28.1105ZM17.0081 31.829L16.8378 32.2396L17.478 32.5051L17.4523 31.8125L17.0081 31.829ZM11.6342 16.8609L11.4766 17.2764L11.9488 16.547L11.6342 16.8609ZM9.01173 14.2316L9.3264 13.9177L8.84028 13.4304L8.59617 14.074L9.01173 14.2316ZM16.8699 28.1105L16.4594 27.9402C16.3726 28.1495 16.2921 28.4825 16.2299 28.8437C16.1661 29.2144 16.1159 29.6483 16.1002 30.0744C16.0846 30.4956 16.1017 30.9329 16.1845 31.2998C16.2597 31.6329 16.425 32.0683 16.8378 32.2396L17.0081 31.829L17.1784 31.4185C17.1993 31.4272 17.1178 31.3974 17.0516 31.1041C16.993 30.8445 16.9742 30.494 16.9884 30.1072C17.0025 29.7253 17.048 29.331 17.1059 28.9945C17.1655 28.6486 17.2329 28.3955 17.2805 28.2807L16.8699 28.1105ZM17.0081 31.829L17.4523 31.8125L17.3141 28.094L16.8699 28.1105L16.4258 28.127L16.564 31.8455L17.0081 31.829ZM11.6342 16.8609L11.7917 16.4453C11.5331 16.3472 10.8477 15.9255 10.2544 15.4139C9.96168 15.1616 9.71857 14.9101 9.56929 14.6915C9.40055 14.4445 9.43583 14.3667 9.42729 14.3892L9.01173 14.2316L8.59617 14.074C8.43715 14.4933 8.64302 14.9114 8.83529 15.1929C9.04702 15.5028 9.35534 15.8124 9.6739 16.0871C10.303 16.6296 11.0794 17.1258 11.4766 17.2764L11.6342 16.8609ZM9.01173 14.2316L8.69705 14.5455L11.3195 17.1747L11.6342 16.8609L11.9488 16.547L9.3264 13.9177L9.01173 14.2316Z" fill="#009C60" mask="url(#path-9-inside-4_15178_4176)"/>
<mask id="path-11-inside-5_15178_4176" fill="white">
<path d="M11.634 16.8609C10.9781 16.6122 8.22276 16.3115 7.92188 17.105L11.634 16.8609ZM28.1343 23.6748C28.7903 23.9235 31.0133 25.6342 30.7124 26.4276L28.1343 23.6748Z"/>
</mask>
<path d="M11.634 16.8609C10.9781 16.6122 8.22276 16.3115 7.92188 17.105L11.634 16.8609ZM28.1343 23.6748C28.7903 23.9235 31.0133 25.6342 30.7124 26.4276L28.1343 23.6748Z" fill="#009C60"/>
<path d="M11.634 16.8609L11.6632 17.3044L11.7916 16.4453L11.634 16.8609ZM7.92188 17.105L7.50631 16.9474L7.26117 17.5938L7.95104 17.5485L7.92188 17.105ZM28.1343 23.6748L28.2918 23.2592L27.8099 23.9786L28.1343 23.6748ZM30.7124 26.4276L30.388 26.7314L30.8752 27.2517L31.1279 26.5852L30.7124 26.4276ZM11.634 16.8609L11.7916 16.4453C11.5803 16.3652 11.2455 16.2944 10.8825 16.2425C10.5101 16.1893 10.075 16.1514 9.6487 16.1477C9.22734 16.144 8.79074 16.1734 8.42647 16.2665C8.09577 16.3511 7.665 16.5289 7.50631 16.9474L7.92188 17.105L8.33744 17.2626C8.3292 17.2843 8.35567 17.2021 8.64672 17.1277C8.9042 17.0619 9.25384 17.0332 9.64092 17.0365C10.0231 17.0399 10.4186 17.0742 10.7567 17.1225C11.1042 17.1722 11.3598 17.2322 11.4764 17.2765L11.634 16.8609ZM7.92188 17.105L7.95104 17.5485L11.6632 17.3044L11.634 16.8609L11.6048 16.4174L7.89271 16.6615L7.92188 17.105ZM28.1343 23.6748L27.9767 24.0903C28.0861 24.1318 28.3104 24.2582 28.6008 24.462C28.8816 24.6591 29.1956 24.9084 29.4795 25.1724C29.7668 25.4395 30.0067 25.7062 30.1543 25.9371C30.3212 26.1982 30.2906 26.2863 30.2968 26.27L30.7124 26.4276L31.1279 26.5852C31.2846 26.1722 31.0889 25.7489 30.9032 25.4583C30.6981 25.1375 30.3976 24.8123 30.0848 24.5214C29.7686 24.2275 29.4226 23.9529 29.1115 23.7345C28.81 23.5228 28.5104 23.3421 28.2918 23.2592L28.1343 23.6748ZM30.7124 26.4276L31.0368 26.1238L28.4587 23.371L28.1343 23.6748L27.8099 23.9786L30.388 26.7314L30.7124 26.4276Z" fill="#009C60" mask="url(#path-11-inside-5_15178_4176)"/>
<path d="M22.7093 26.7506C22.6016 24.6417 24.341 22.9023 26.4499 23.01C24.8826 21.595 24.8826 19.1351 26.4499 17.72C24.341 17.8277 22.6016 16.0883 22.7093 13.9794C21.2943 15.5468 18.8344 15.5468 17.4193 13.9794M22.7093 26.7506C21.2943 25.1832 18.8344 25.1832 17.4193 26.7506C17.527 24.6417 15.7876 22.9023 13.6787 23.01C15.2461 21.595 15.2461 19.135 13.6787 17.72C15.7876 17.8277 17.527 16.0883 17.4193 13.9794M22.7093 26.7506L23.2758 28.1102M17.4193 13.9794L16.531 11.8286M23.2758 28.1102C23.5439 28.7584 23.9326 31.5033 23.1485 31.8276M23.2758 28.1102C23.5439 28.7584 25.2036 30.9775 25.9877 30.6531M16.531 11.8286C16.2629 11.1803 15.8787 8.46278 16.6629 8.13847M16.531 11.8286C16.2629 11.1803 14.6071 8.98858 13.8229 9.31294M16.8703 28.1104L17.4273 26.7417M16.8703 28.1104C16.6015 28.7585 14.9531 30.9767 14.1693 30.6515M16.8703 28.1104C16.6015 28.7584 16.2243 31.5038 17.0081 31.829M26.3786 23.0071L28.1348 23.6747C28.7908 23.9234 31.0133 25.6342 30.7124 26.4276M22.7087 13.9914L23.5377 11.8522M23.5377 11.8522C23.8066 11.2042 25.5068 9.03266 26.2906 9.35786M23.5377 11.8522C23.8065 11.2042 24.2358 8.50551 23.452 8.18035M13.7793 17.8143L11.6345 16.8609M11.6345 16.8609C10.9786 16.6122 8.71079 15.025 9.01173 14.2316M11.6345 16.8609C10.9786 16.6122 8.22276 16.3115 7.92188 17.105" stroke="#009C60" stroke-width="0.977778" stroke-miterlimit="10" stroke-linecap="round" stroke-linejoin="round"/>
<mask id="path-14-inside-6_15178_4176" fill="white">
<path d="M28.1345 23.6748C28.7905 23.9235 31.5014 24.3477 31.8023 23.5543L28.1345 23.6748Z"/>
</mask>
<path d="M28.1345 23.6748C28.7905 23.9235 31.5014 24.3477 31.8023 23.5543L28.1345 23.6748Z" fill="#009C60"/>
<path d="M28.1345 23.6748L28.1199 23.2306L27.9769 24.0903L28.1345 23.6748ZM31.8023 23.5543L32.2179 23.7119L32.4544 23.0882L31.7877 23.1101L31.8023 23.5543ZM28.1345 23.6748L27.9769 24.0903C28.3635 24.2369 29.2555 24.41 30.0804 24.4493C30.4957 24.4691 30.9282 24.457 31.2906 24.3768C31.6204 24.3038 32.0565 24.1373 32.2179 23.7119L31.8023 23.5543L31.3867 23.3967C31.3976 23.3681 31.3821 23.4461 31.0984 23.5089C30.8474 23.5645 30.5048 23.5796 30.1227 23.5614C29.3529 23.5248 28.5615 23.3614 28.2921 23.2592L28.1345 23.6748ZM31.8023 23.5543L31.7877 23.1101L28.1199 23.2306L28.1345 23.6748L28.1491 24.119L31.8169 23.9985L31.8023 23.5543Z" fill="#009C60" mask="url(#path-14-inside-6_15178_4176)"/>
<path d="M28.1345 23.6748C28.7905 23.9235 31.5014 24.3477 31.8023 23.5543" stroke="#009C60" stroke-width="0.977778" stroke-miterlimit="10" stroke-linecap="round" stroke-linejoin="round"/>
<path d="M20.0639 22.6626C21.3327 22.6626 22.3613 21.634 22.3613 20.3652C22.3613 19.0963 21.3327 18.0678 20.0639 18.0678C18.7951 18.0678 17.7665 19.0963 17.7665 20.3652C17.7665 21.634 18.7951 22.6626 20.0639 22.6626Z" fill="#009C60" stroke="#009C60" stroke-width="0.888889" stroke-miterlimit="10" stroke-linecap="round" stroke-linejoin="round"/>
<path d="M26.4497 17.7199L30.5309 15.8503" stroke="#009C60" stroke-width="0.444444"/>
<mask id="path-19-inside-7_15178_4176" fill="white">
<path d="M25.4001 20.0183L27.752 18.9814L29.2853 19.4202"/>
</mask>
<path d="M25.4001 20.0183L27.752 18.9814L29.2853 19.4202" fill="#009C60"/>
<path d="M27.752 18.9814L27.8743 18.5541L27.7198 18.5098L27.5727 18.5747L27.752 18.9814ZM25.4001 20.0183L25.5795 20.425L27.9313 19.388L27.752 18.9814L27.5727 18.5747L25.2208 19.6117L25.4001 20.0183ZM27.752 18.9814L27.6297 19.4087L29.1631 19.8475L29.2853 19.4202L29.4076 18.9929L27.8743 18.5541L27.752 18.9814Z" fill="#009C60" mask="url(#path-19-inside-7_15178_4176)"/>
<mask id="path-21-inside-8_15178_4176" fill="white">
<path d="M24.1071 16.8113L26.2608 15.954L26.9298 14.5062"/>
</mask>
<path d="M24.1071 16.8113L26.2608 15.954L26.9298 14.5062" fill="#009C60"/>
<path d="M13.6975 23.0232L13.6059 22.8208L9.33286 24.7534L9.42444 24.9559L9.51602 25.1584L13.7891 23.2257L13.6975 23.0232ZM26.2608 15.954L26.4252 16.3669L26.5899 16.3013L26.6643 16.1404L26.2608 15.954ZM24.1071 16.8113L24.2715 17.2243L26.4252 16.3669L26.2608 15.954L26.0965 15.5411L23.9427 16.3984L24.1071 16.8113ZM26.2608 15.954L26.6643 16.1404L27.3333 14.6926L26.9298 14.5062L26.5264 14.3197L25.8574 15.7676L26.2608 15.954Z" fill="#009C60" mask="url(#path-21-inside-8_15178_4176)"/>
<mask id="path-23-inside-9_15178_4176" fill="white">
<path d="M14.7465 20.7248L12.3424 21.7097L10.8091 21.2708"/>
</mask>
<path d="M14.7465 20.7248L12.3424 21.7097L10.8091 21.2708" fill="#009C60"/>
<path d="M12.3424 21.7097L12.2201 22.137L12.3682 22.1794L12.5109 22.1209L12.3424 21.7097ZM14.7465 20.7248L14.578 20.3136L12.1739 21.2984L12.3424 21.7097L12.5109 22.1209L14.9149 21.1361L14.7465 20.7248ZM12.3424 21.7097L12.4647 21.2824L10.9314 20.8435L10.8091 21.2708L10.6868 21.6981L12.2201 22.137L12.3424 21.7097Z" fill="#009C60" mask="url(#path-23-inside-9_15178_4176)"/>
<mask id="path-25-inside-10_15178_4176" fill="white">
<path d="M16.04 23.9319L13.834 24.7893L13.165 26.2372"/>
</mask>
<path d="M16.04 23.9319L13.834 24.7893L13.165 26.2372" fill="#009C60"/>
<path d="M13.834 24.7893L13.673 24.375L13.5058 24.44L13.4306 24.6029L13.834 24.7893ZM16.04 23.9319L15.879 23.5177L13.673 24.375L13.834 24.7893L13.995 25.2036L16.201 24.3462L16.04 23.9319ZM13.834 24.7893L13.4306 24.6029L12.7616 26.0508L13.165 26.2372L13.5685 26.4236L14.2375 24.9757L13.834 24.7893Z" fill="#009C60" mask="url(#path-25-inside-10_15178_4176)"/>
<path d="M26.4496 17.7199L30.5307 15.8503M25.4001 20.0183L27.752 18.9813L29.2853 19.4201M24.1071 16.8112L26.2608 15.9539L26.9298 14.5061M13.6975 23.0231L9.4244 24.9558M14.7463 20.7248L12.3422 21.7097L10.8089 21.2708M16.0398 23.9319L13.8338 24.7892L13.1648 26.2371M31.3075 16.3322C31.7656 16.3322 32.1369 15.9609 32.1369 15.5029C32.1369 15.0449 31.7656 14.6736 31.3075 14.6736C30.8495 14.6736 30.4782 15.0449 30.4782 15.5029C30.4782 15.9609 30.8495 16.3322 31.3075 16.3322ZM30.2641 20.5117C30.7222 20.5117 31.0935 20.1405 31.0935 19.6824C31.0935 19.2244 30.7222 18.8531 30.2641 18.8531C29.8061 18.8531 29.4348 19.2244 29.4348 19.6824C29.4348 20.1405 29.8061 20.5117 30.2641 20.5117ZM27.37 14.4229C27.828 14.4229 28.1993 14.0517 28.1993 13.5937C28.1993 13.1356 27.828 12.7643 27.37 12.7643C26.912 12.7643 26.5407 13.1356 26.5407 13.5937C26.5407 14.0517 26.912 14.4229 27.37 14.4229ZM8.64696 26.1326C9.10496 26.1326 9.47625 25.7613 9.47625 25.3033C9.47625 24.8452 9.10496 24.474 8.64696 24.474C8.18892 24.474 7.81763 24.8452 7.81763 25.3033C7.81763 25.7613 8.18892 26.1326 8.64696 26.1326ZM9.83012 21.8379C10.2881 21.8379 10.6594 21.4666 10.6594 21.0086C10.6594 20.5505 10.2881 20.1793 9.83012 20.1793C9.37208 20.1793 9.00079 20.5505 9.00079 21.0086C9.00079 21.4666 9.37208 21.8379 9.83012 21.8379ZM12.7242 27.9789C13.1822 27.9789 13.5535 27.6076 13.5535 27.1496C13.5535 26.6916 13.1822 26.3203 12.7242 26.3203C12.2662 26.3203 11.8949 26.6916 11.8949 27.1496C11.8949 27.6076 12.2662 27.9789 12.7242 27.9789Z" stroke="#009C60" stroke-width="0.977778" stroke-miterlimit="10" stroke-linecap="round" stroke-linejoin="round"/>
</svg>